# Blender v2.74 (sub 0) OBJ File: ''
# www.blender.org
mtllib cat.mtl
o Body
v 0.500000 1.222500 1.400000
v 0.500000 1.222500 -1.400000
v 0.500000 0.222500 1.400000
v 0.500000 0.222500 -1.400000
v -0.500000 1.222500 -1.400000
v -0.500000 1.222500 1.400000
v -0.500000 0.222500 -1.400000
v -0.500000 0.222500 1.400000
vt 0.000000 1.000000
vt 0.000000 0.000000
vt 1.000000 0.000000
vt 1.000000 1.000000
vn 1.000000 0.000000 0.000000
vn -1.000000 0.000000 0.000000
vn 0.000000 1.000000 0.000000
vn 0.000000 -1.000000 0.000000
vn 0.000000 0.000000 1.000000
vn 0.000000 0.000000 -1.000000
usemtl BodyDefault
s 1
f 1/1/1 3/2/1 4/3/1 2/4/1
f 5/1/2 7/2/2 8/3/2 6/4/2
f 5/1/3 6/2/3 1/3/3 2/4/3
f 8/1/4 7/2/4 4/3/4 3/4/4
f 6/1/5 8/2/5 3/3/5 1/4/5
f 2/1/6 4/2/6 7/3/6 5/4/6
o Head
v 0.500000 0.889700 2.011100
v 0.500000 1.889700 2.011100
v 0.500000 0.889700 1.011100
v 0.500000 1.889700 1.011100
v -0.500000 1.889700 2.015905
v -0.500000 0.889700 2.015905
v -0.500000 1.889700 1.015905
v -0.500000 0.889700 1.015905
vt 1.000000 0.000000
vt 1.000000 1.000000
vt 0.000000 1.000000
vt 0.000000 0.000000
vn 1.000000 0.000000 0.000000
vn -1.000000 0.000000 0.000000
vn 0.000000 -0.000000 1.000000
vn -0.000000 0.000000 -1.000000
vn -0.000000 -1.000000 -0.000000
vn 0.000000 1.000000 0.000000
usemtl HeadDefault
s 1
f 9/5/7 11/5/7 12/6/7 10/6/7
f 13/7/8 15/7/8 16/8/8 14/8/8
f 13/7/9 14/8/9 9/5/9 10/6/9
f 16/8/10 15/7/10 12/6/10 11/5/10
f 14/8/11 16/8/11 11/5/11 9/5/11
f 10/6/12 12/6/12 15/7/12 13/7/12
o Tetrahedron1
v 0.301454 1.955394 1.948617
v 0.121166 1.842775 1.696059
v 0.270372 2.136438 1.674338
v 0.449808 1.859393 1.669786
vt 0.625000 0.304087
vt 0.875000 0.695913
vt 0.375000 0.695913
vt 0.125000 0.304087
vn -0.811800 0.440800 0.383000
vn 0.813900 0.523000 0.253000
vn 0.075800 -0.929700 0.360400
vn -0.077900 -0.034100 -0.996400
usemtl Tetrahedron1Default
s 1
f 18/9/13 17/10/13 19/11/13
f 20/12/14 19/11/14 17/10/14
f 20/12/15 17/10/15 18/9/15
f 20/12/16 18/9/16 19/11/16
o Tetrahedron
v -0.293546 1.955394 1.948617
v -0.473834 1.842775 1.696059
v -0.324628 2.136438 1.674338
v -0.145192 1.859393 1.669786
vt 0.625000 0.304087
vt 0.875000 0.695913
vt 0.375000 0.695913
vt 0.125000 0.304087
vn -0.811800 0.440800 0.383000
vn 0.813900 0.523000 0.253000
vn 0.075800 -0.929700 0.360400
vn -0.077900 -0.034100 -0.996400
usemtl TetrahedronDefault
s 1
f 22/13/17 21/14/17 23/15/17
f 24/16/18 23/15/18 21/14/18
f 24/16/19 21/14/19 22/13/19
f 24/16/20 22/13/20 23/15/20
o Leg2
v 0.640000 0.500000 -0.681200
v 0.640000 0.500000 -1.181200
v 0.640000 -0.500000 -0.681200
v 0.640000 -0.500000 -1.181200
v 0.240000 0.500000 -1.181200
v 0.240000 0.500000 -0.681200
v 0.240000 -0.500000 -1.181200
v 0.240000 -0.500000 -0.681200
vt 0.000000 1.000000
vt 0.000000 0.000000
vt 1.000000 0.000000
vt 1.000000 1.000000
vn 1.000000 0.000000 0.000000
vn -1.000000 0.000000 0.000000
vn 0.000000 1.000000 0.000000
vn 0.000000 -1.000000 0.000000
vn 0.000000 0.000000 1.000000
vn 0.000000 0.000000 -1.000000
usemtl Leg2Default
s 1
f 25/17/21 27/18/21 28/19/21 26/20/21
f 29/17/22 31/18/22 32/19/22 30/20/22
f 29/17/23 30/18/23 25/19/23 26/20/23
f 32/17/24 31/18/24 28/19/24 27/20/24
f 30/17/25 32/18/25 27/19/25 25/20/25
f 26/17/26 28/18/26 31/19/26 29/20/26
o Leg
v -0.240000 0.500000 1.127300
v -0.240000 0.500000 0.627300
v -0.240000 -0.500000 1.127300
v -0.240000 -0.500000 0.627300
v -0.640000 0.500000 0.627300
v -0.640000 0.500000 1.127300
v -0.640000 -0.500000 0.627300
v -0.640000 -0.500000 1.127300
vt 0.000000 1.000000
vt 0.000000 0.000000
vt 1.000000 0.000000
vt 1.000000 1.000000
vn 1.000000 0.000000 0.000000
vn -1.000000 0.000000 0.000000
vn 0.000000 1.000000 0.000000
vn 0.000000 -1.000000 0.000000
vn 0.000000 0.000000 1.000000
vn 0.000000 0.000000 -1.000000
usemtl LegDefault
s 1
f 33/21/27 35/22/27 36/23/27 34/24/27
f 37/21/28 39/22/28 40/23/28 38/24/28
f 37/21/29 38/22/29 33/23/29 34/24/29
f 40/21/30 39/22/30 36/23/30 35/24/30
f 38/21/31 40/22/31 35/23/31 33/24/31
f 34/21/32 36/22/32 39/23/32 37/24/32
o Leg3
v -0.240000 0.500000 -0.681200
v -0.240000 0.500000 -1.181200
v -0.240000 -0.500000 -0.681200
v -0.240000 -0.500000 -1.181200
v -0.640000 0.500000 -1.181200
v -0.640000 0.500000 -0.681200
v -0.640000 -0.500000 -1.181200
v -0.640000 -0.500000 -0.681200
vt 0.000000 1.000000
vt 0.000000 0.000000
vt 1.000000 0.000000
vt 1.000000 1.000000
vn 1.000000 0.000000 0.000000
vn -1.000000 0.000000 0.000000
vn 0.000000 1.000000 0.000000
vn 0.000000 -1.000000 0.000000
vn 0.000000 0.000000 1.000000
vn 0.000000 0.000000 -1.000000
usemtl Leg3Default
s 1
f 41/25/33 43/26/33 44/27/33 42/28/33
f 45/25/34 47/26/34 48/27/34 46/28/34
f 45/25/35 46/26/35 41/27/35 42/28/35
f 48/25/36 47/26/36 44/27/36 43/28/36
f 46/25/37 48/26/37 43/27/37 41/28/37
f 42/25/38 44/26/38 47/27/38 45/28/38
o Leg1
v 0.640000 0.500000 1.127300
v 0.640000 0.500000 0.627300
v 0.640000 -0.500000 1.127300
v 0.640000 -0.500000 0.627300
v 0.240000 0.500000 0.627300
v 0.240000 0.500000 1.127300
v 0.240000 -0.500000 0.627300
v 0.240000 -0.500000 1.127300
vt 0.000000 1.000000
vt 0.000000 0.000000
vt 1.000000 0.000000
vt 1.000000 1.000000
vn 1.000000 0.000000 0.000000
vn -1.000000 0.000000 0.000000
vn 0.000000 1.000000 0.000000
vn 0.000000 -1.000000 0.000000
vn 0.000000 0.000000 1.000000
vn 0.000000 0.000000 -1.000000
usemtl Leg1Default
s 1
f 49/29/39 51/30/39 52/31/39 50/32/39
f 53/29/40 55/30/40 56/31/40 54/32/40
f 53/29/41 54/30/41 49/31/41 50/32/41
f 56/29/42 55/30/42 52/31/42 51/32/42
f 54/29/43 56/30/43 51/31/43 49/32/43
f 50/29/44 52/30/44 55/31/44 53/32/44
