# Blender v2.74 (sub 0) OBJ File: ''
# www.blender.org
mtllib tree.mtl
o Cone
v 0.000000 4.022900 0.000000
v 0.000000 1.022900 1.200000
v 0.938200 1.022900 0.748200
v 1.169900 1.022900 -0.267000
v 0.520700 1.022900 -1.081200
v -0.520700 1.022900 -1.081200
v -1.169900 1.022900 -0.267000
v -0.938200 1.022900 0.748200
v 0.000000 1.022900 0.000000
vt 0.000000 1.000000
vt 0.000000 0.000000
vt 0.142857 0.000000
vt 0.142857 1.000000
vt 0.285714 0.000000
vt 0.285714 1.000000
vt 0.428571 0.000000
vt 0.428571 1.000000
vt 0.571429 0.000000
vt 0.571429 1.000000
vt 0.714286 0.000000
vt 0.714286 1.000000
vt 0.857143 0.000000
vt 0.857143 1.000000
vt 1.000000 0.000000
vn 0.408200 0.339000 0.847600
vn 0.917200 0.339000 0.209300
vn 0.735600 0.339000 -0.586500
vn 0.000000 0.339100 -0.940800
vn -0.735600 0.339000 -0.586500
vn -0.917200 0.339000 0.209300
vn -0.408200 0.339000 0.847600
vn 0.000000 -1.000000 -0.000000
usemtl ConeDefault
s 1
f 1/1/1 2/2/1 3/3/1
f 1/4/2 3/3/2 4/5/2
f 1/6/3 4/5/3 5/7/3
f 1/8/4 5/7/4 6/9/4
f 1/10/5 6/9/5 7/11/5
f 1/12/6 7/11/6 8/13/6
f 1/14/7 8/13/7 2/15/7
f 3/3/8 2/2/8 9/1/8
f 4/5/8 3/3/8 9/1/8
f 5/7/8 4/5/8 9/1/8
f 6/9/8 5/7/8 9/1/8
f 7/11/8 6/9/8 9/1/8
f 8/13/8 7/11/8 9/1/8
f 2/15/8 8/13/8 9/1/8
o Torus
v 1.304600 1.483100 0.000000
v 1.097300 1.197800 0.000000
v 0.761900 1.306800 0.000000
v 0.761900 1.659400 -0.000000
v 1.097300 1.768400 -0.000000
v 0.406300 1.483100 1.236400
v 0.342300 1.197800 1.039200
v 0.238600 1.306800 0.720200
v 0.238600 1.659400 0.720200
v 0.342300 1.768400 1.039200
v -1.047100 1.483100 0.764100
v -0.879400 1.197800 0.642300
v -0.608100 1.306800 0.445100
v -0.608100 1.659400 0.445100
v -0.879400 1.768400 0.642300
v -1.047100 1.483100 -0.764100
v -0.879400 1.197800 -0.642300
v -0.608100 1.306800 -0.445100
v -0.608100 1.659400 -0.445100
v -0.879400 1.768400 -0.642300
v 0.406300 1.483100 -1.236400
v 0.342300 1.197800 -1.039200
v 0.238600 1.306800 -0.720200
v 0.238600 1.659400 -0.720200
v 0.342300 1.768400 -1.039200
vt 0.000000 0.000000
vt 0.200000 0.000000
vt 0.200000 0.200000
vt 0.000000 0.200000
vt 0.200000 0.400000
vt 0.000000 0.400000
vt 0.200000 0.600000
vt 0.000000 0.600000
vt 0.200000 0.800000
vt 0.000000 0.800000
vt 0.200000 1.000000
vt 0.000000 1.000000
vt 0.400000 0.000000
vt 0.400000 0.200000
vt 0.400000 0.400000
vt 0.400000 0.600000
vt 0.400000 0.800000
vt 0.400000 1.000000
vt 0.600000 0.000000
vt 0.600000 0.200000
vt 0.600000 0.400000
vt 0.600000 0.600000
vt 0.600000 0.800000
vt 0.600000 1.000000
vt 0.800000 0.000000
vt 0.800000 0.200000
vt 0.800000 0.400000
vt 0.800000 0.600000
vt 0.800000 0.800000
vt 0.800000 1.000000
vt 1.000000 0.000000
vt 1.000000 0.200000
vt 1.000000 0.400000
vt 1.000000 0.600000
vt 1.000000 0.800000
vt 1.000000 1.000000
vn 1.000000 0.000000 0.000000
vn 0.308900 0.000000 0.951100
vn 0.082200 -0.964000 0.253000
vn 0.266000 -0.964000 0.000100
vn -0.237100 -0.641200 -0.729800
vn -0.767400 -0.641200 -0.000100
vn -0.237100 0.641200 -0.729800
vn -0.767400 0.641200 0.000000
vn 0.082200 0.964000 0.253000
vn 0.266000 0.964000 0.000000
vn -0.809000 0.000000 0.587700
vn -0.215200 -0.964000 0.156400
vn 0.620800 -0.641200 -0.451100
vn 0.620800 0.641200 -0.451100
vn -0.215200 0.964000 0.156400
vn -0.809000 0.000000 -0.587700
vn -0.215200 -0.964000 -0.156400
vn 0.620800 -0.641200 0.451000
vn 0.620800 0.641200 0.451000
vn -0.215200 0.964000 -0.156400
vn 0.308900 0.000000 -0.951100
vn 0.082200 -0.964000 -0.253000
vn -0.237100 -0.641200 0.729800
vn -0.237100 0.641200 0.729800
vn 0.082200 0.964000 -0.253000
usemtl TorusDefault
s 1
f 10/16/9 15/17/10 16/18/11 11/19/12
f 11/19/12 16/18/11 17/20/13 12/21/14
f 12/21/14 17/20/13 18/22/15 13/23/16
f 13/23/16 18/22/15 19/24/17 14/25/18
f 14/25/18 19/24/17 15/26/10 10/27/9
f 15/17/10 20/28/19 21/29/20 16/18/11
f 16/18/11 21/29/20 22/30/21 17/20/13
f 17/20/13 22/30/21 23/31/22 18/22/15
f 18/22/15 23/31/22 24/32/23 19/24/17
f 19/24/17 24/32/23 20/33/19 15/26/10
f 20/28/19 25/34/24 26/35/25 21/29/20
f 21/29/20 26/35/25 27/36/26 22/30/21
f 22/30/21 27/36/26 28/37/27 23/31/22
f 23/31/22 28/37/27 29/38/28 24/32/23
f 24/32/23 29/38/28 25/39/24 20/33/19
f 25/34/24 30/40/29 31/41/30 26/35/25
f 26/35/25 31/41/30 32/42/31 27/36/26
f 27/36/26 32/42/31 33/43/32 28/37/27
f 28/37/27 33/43/32 34/44/33 29/38/28
f 29/38/28 34/44/33 30/45/29 25/39/24
f 30/40/29 10/46/9 11/47/12 31/41/30
f 31/41/30 11/47/12 12/48/14 32/42/31
f 32/42/31 12/48/14 13/49/16 33/43/32
f 33/43/32 13/49/16 14/50/18 34/44/33
f 34/44/33 14/50/18 10/51/9 30/45/29
o Cylinder
v 0.000000 1.412500 0.170000
v 0.033200 1.412500 0.166700
v 0.065100 1.412500 0.157100
v 0.094400 1.412500 0.141300
v 0.120200 1.412500 0.120200
v 0.141300 1.412500 0.094400
v 0.157100 1.412500 0.065100
v 0.166700 1.412500 0.033200
v 0.170000 1.412500 0.000000
v 0.166700 1.412500 -0.033200
v 0.157100 1.412500 -0.065100
v 0.141300 1.412500 -0.094400
v 0.120200 1.412500 -0.120200
v 0.094400 1.412500 -0.141300
v 0.065100 1.412500 -0.157100
v 0.033200 1.412500 -0.166700
v 0.000000 1.412500 -0.170000
v -0.033200 1.412500 -0.166700
v -0.065100 1.412500 -0.157100
v -0.094400 1.412500 -0.141300
v -0.120200 1.412500 -0.120200
v -0.141300 1.412500 -0.094400
v -0.157100 1.412500 -0.065100
v -0.166700 1.412500 -0.033200
v -0.170000 1.412500 0.000000
v -0.166700 1.412500 0.033200
v -0.157100 1.412500 0.065100
v -0.141300 1.412500 0.094400
v -0.120200 1.412500 0.120200
v -0.094400 1.412500 0.141300
v -0.065100 1.412500 0.157100
v -0.033200 1.412500 0.166700
v 0.000000 0.012500 0.170000
v 0.033200 0.012500 0.166700
v 0.065100 0.012500 0.157100
v 0.094400 0.012500 0.141300
v 0.120200 0.012500 0.120200
v 0.141300 0.012500 0.094400
v 0.157100 0.012500 0.065100
v 0.166700 0.012500 0.033200
v 0.170000 0.012500 0.000000
v 0.166700 0.012500 -0.033200
v 0.157100 0.012500 -0.065100
v 0.141300 0.012500 -0.094400
v 0.120200 0.012500 -0.120200
v 0.094400 0.012500 -0.141300
v 0.065100 0.012500 -0.157100
v 0.033200 0.012500 -0.166700
v 0.000000 0.012500 -0.170000
v -0.033200 0.012500 -0.166700
v -0.065100 0.012500 -0.157100
v -0.094400 0.012500 -0.141300
v -0.120200 0.012500 -0.120200
v -0.141300 0.012500 -0.094400
v -0.157100 0.012500 -0.065100
v -0.166700 0.012500 -0.033200
v -0.170000 0.012500 0.000000
v -0.166700 0.012500 0.033200
v -0.157100 0.012500 0.065100
v -0.141300 0.012500 0.094400
v -0.120200 0.012500 0.120200
v -0.094400 0.012500 0.141300
v -0.065100 0.012500 0.157100
v -0.033200 0.012500 0.166700
v 0.000000 1.412500 0.000000
v 0.000000 0.012500 0.000000
vt 0.000000 1.000000
vt 0.000000 0.000000
vt 0.031250 0.000000
vt 0.031250 1.000000
vt 0.062500 0.000000
vt 0.062500 1.000000
vt 0.093750 0.000000
vt 0.093750 1.000000
vt 0.125000 0.000000
vt 0.125000 1.000000
vt 0.156250 0.000000
vt 0.156250 1.000000
vt 0.187500 0.000000
vt 0.187500 1.000000
vt 0.218750 0.000000
vt 0.218750 1.000000
vt 0.250000 0.000000
vt 0.250000 1.000000
vt 0.281250 0.000000
vt 0.281250 1.000000
vt 0.312500 0.000000
vt 0.312500 1.000000
vt 0.343750 0.000000
vt 0.343750 1.000000
vt 0.375000 0.000000
vt 0.375000 1.000000
vt 0.406250 0.000000
vt 0.406250 1.000000
vt 0.437500 0.000000
vt 0.437500 1.000000
vt 0.468750 0.000000
vt 0.468750 1.000000
vt 0.500000 0.000000
vt 0.500000 1.000000
vt 0.531250 0.000000
vt 0.531250 1.000000
vt 0.562500 0.000000
vt 0.562500 1.000000
vt 0.593750 0.000000
vt 0.593750 1.000000
vt 0.625000 0.000000
vt 0.625000 1.000000
vt 0.656250 0.000000
vt 0.656250 1.000000
vt 0.687500 0.000000
vt 0.687500 1.000000
vt 0.718750 0.000000
vt 0.718750 1.000000
vt 0.750000 0.000000
vt 0.750000 1.000000
vt 0.781250 0.000000
vt 0.781250 1.000000
vt 0.812500 0.000000
vt 0.812500 1.000000
vt 0.843750 0.000000
vt 0.843750 1.000000
vt 0.875000 0.000000
vt 0.875000 1.000000
vt 0.906250 0.000000
vt 0.906250 1.000000
vt 0.937500 0.000000
vt 0.937500 1.000000
vt 0.968750 0.000000
vt 0.968750 1.000000
vt 1.000000 0.000000
vt 1.000000 1.000000
vn 0.000000 0.000000 1.000000
vn 0.194400 0.000000 0.980900
vn 0.383400 0.000000 0.923600
vn 0.556400 0.000000 0.830900
vn 0.707100 0.000000 0.707100
vn 0.830900 0.000000 0.556400
vn 0.923600 0.000000 0.383400
vn 0.980900 0.000000 0.194400
vn 1.000000 0.000000 0.000000
vn 0.980900 0.000000 -0.194400
vn 0.923600 0.000000 -0.383400
vn 0.830900 0.000000 -0.556400
vn 0.707100 0.000000 -0.707100
vn 0.556400 0.000000 -0.830900
vn 0.383400 0.000000 -0.923600
vn 0.194400 0.000000 -0.980900
vn 0.000000 0.000000 -1.000000
vn -0.194400 0.000000 -0.980900
vn -0.383400 0.000000 -0.923600
vn -0.556400 0.000000 -0.830900
vn -0.707100 0.000000 -0.707100
vn -0.830900 0.000000 -0.556400
vn -0.923600 0.000000 -0.383400
vn -0.980900 0.000000 -0.194400
vn -1.000000 0.000000 0.000000
vn -0.980900 0.000000 0.194400
vn -0.923600 0.000000 0.383400
vn -0.830900 0.000000 0.556400
vn -0.707100 0.000000 0.707100
vn -0.556400 0.000000 0.830900
vn -0.383400 0.000000 0.923600
vn -0.194400 0.000000 0.980900
vn 0.000000 1.000000 0.000000
vn 0.000000 -1.000000 0.000000
usemtl CylinderDefault
s 1
f 35/52/34 67/53/34 68/54/35 36/55/35
f 36/55/35 68/54/35 69/56/36 37/57/36
f 37/57/36 69/56/36 70/58/37 38/59/37
f 38/59/37 70/58/37 71/60/38 39/61/38
f 39/61/38 71/60/38 72/62/39 40/63/39
f 40/63/39 72/62/39 73/64/40 41/65/40
f 41/65/40 73/64/40 74/66/41 42/67/41
f 42/67/41 74/66/41 75/68/42 43/69/42
f 43/69/42 75/68/42 76/70/43 44/71/43
f 44/71/43 76/70/43 77/72/44 45/73/44
f 45/73/44 77/72/44 78/74/45 46/75/45
f 46/75/45 78/74/45 79/76/46 47/77/46
f 47/77/46 79/76/46 80/78/47 48/79/47
f 48/79/47 80/78/47 81/80/48 49/81/48
f 49/81/48 81/80/48 82/82/49 50/83/49
f 50/83/49 82/82/49 83/84/50 51/85/50
f 51/85/50 83/84/50 84/86/51 52/87/51
f 52/87/51 84/86/51 85/88/52 53/89/52
f 53/89/52 85/88/52 86/90/53 54/91/53
f 54/91/53 86/90/53 87/92/54 55/93/54
f 55/93/54 87/92/54 88/94/55 56/95/55
f 56/95/55 88/94/55 89/96/56 57/97/56
f 57/97/56 89/96/56 90/98/57 58/99/57
f 58/99/57 90/98/57 91/100/58 59/101/58
f 59/101/58 91/100/58 92/102/59 60/103/59
f 60/103/59 92/102/59 93/104/60 61/105/60
f 61/105/60 93/104/60 94/106/61 62/107/61
f 62/107/61 94/106/61 95/108/62 63/109/62
f 63/109/62 95/108/62 96/110/63 64/111/63
f 64/111/63 96/110/63 97/112/64 65/113/64
f 65/113/64 97/112/64 98/114/65 66/115/65
f 66/115/65 98/114/65 67/116/34 35/117/34
f 35/52/66 36/55/66 99/53/66
f 36/55/66 37/57/66 99/53/66
f 37/57/66 38/59/66 99/53/66
f 38/59/66 39/61/66 99/53/66
f 39/61/66 40/63/66 99/53/66
f 40/63/66 41/65/66 99/53/66
f 41/65/66 42/67/66 99/53/66
f 42/67/66 43/69/66 99/53/66
f 43/69/66 44/71/66 99/53/66
f 44/71/66 45/73/66 99/53/66
f 45/73/66 46/75/66 99/53/66
f 46/75/66 47/77/66 99/53/66
f 47/77/66 48/79/66 99/53/66
f 48/79/66 49/81/66 99/53/66
f 49/81/66 50/83/66 99/53/66
f 50/83/66 51/85/66 99/53/66
f 51/85/66 52/87/66 99/53/66
f 52/87/66 53/89/66 99/53/66
f 53/89/66 54/91/66 99/53/66
f 54/91/66 55/93/66 99/53/66
f 55/93/66 56/95/66 99/53/66
f 56/95/66 57/97/66 99/53/66
f 57/97/66 58/99/66 99/53/66
f 58/99/66 59/101/66 99/53/66
f 59/101/66 60/103/66 99/53/66
f 60/103/66 61/105/66 99/53/66
f 61/105/66 62/107/66 99/53/66
f 62/107/66 63/109/66 99/53/66
f 63/109/66 64/111/66 99/53/66
f 64/111/66 65/113/66 99/53/66
f 65/113/66 66/115/66 99/53/66
f 66/115/66 35/117/66 99/53/66
f 68/54/67 67/53/67 100/52/67
f 69/56/67 68/54/67 100/52/67
f 70/58/67 69/56/67 100/52/67
f 71/60/67 70/58/67 100/52/67
f 72/62/67 71/60/67 100/52/67
f 73/64/67 72/62/67 100/52/67
f 74/66/67 73/64/67 100/52/67
f 75/68/67 74/66/67 100/52/67
f 76/70/67 75/68/67 100/52/67
f 77/72/67 76/70/67 100/52/67
f 78/74/67 77/72/67 100/52/67
f 79/76/67 78/74/67 100/52/67
f 80/78/67 79/76/67 100/52/67
f 81/80/67 80/78/67 100/52/67
f 82/82/67 81/80/67 100/52/67
f 83/84/67 82/82/67 100/52/67
f 84/86/67 83/84/67 100/52/67
f 85/88/67 84/86/67 100/52/67
f 86/90/67 85/88/67 100/52/67
f 87/92/67 86/90/67 100/52/67
f 88/94/67 87/92/67 100/52/67
f 89/96/67 88/94/67 100/52/67
f 90/98/67 89/96/67 100/52/67
f 91/100/67 90/98/67 100/52/67
f 92/102/67 91/100/67 100/52/67
f 93/104/67 92/102/67 100/52/67
f 94/106/67 93/104/67 100/52/67
f 95/108/67 94/106/67 100/52/67
f 96/110/67 95/108/67 100/52/67
f 97/112/67 96/110/67 100/52/67
f 98/114/67 97/112/67 100/52/67
f 67/116/67 98/114/67 100/52/67
